<svg preserveAspectRatio="xMidYMid meet" data-bbox="34 41.502 131.996 116.993" viewBox="34 41.502 131.996 116.993" height="200" width="200" xmlns="http://www.w3.org/2000/svg" data-type="color" role="presentation" aria-hidden="true" aria-label="">
    <g>
        <path d="M132.291 45.961l-12.495 18.153h10.15a2.846 2.846 0 0 1 2.269 4.566l-19.451 25.684h13.951a2.845 2.845 0 0 1 2.181 4.677l-49.048 58.443a2.848 2.848 0 0 1-4.879-2.735l13.132-39.126H76.199a2.845 2.845 0 0 1-2.622-3.954l12.721-30.113H73.85a2.846 2.846 0 0 1-2.618-3.965L85.917 43.23a2.848 2.848 0 0 1 2.618-1.728h41.411a2.848 2.848 0 0 1 2.345 4.459z" fill="#2F2D56" data-color="1" fill="currentColor"></path>
        <path d="M112.035 65.346a2.845 2.845 0 0 0 2.345 4.461h9.839l-19.451 25.684a2.848 2.848 0 0 0 2.269 4.566h13.573l-35.461 42.254 9.608-28.631a2.848 2.848 0 0 0-2.698-3.752H80.492l12.721-30.113a2.846 2.846 0 0 0-2.622-3.954H78.163l12.251-28.668h34.116l-12.495 18.153z" fill="#F9B233" data-color="2" fill="currentColor"></path>
        <path d="M164.102 96.287h-7.309a1.898 1.898 0 0 0 0 3.796h7.309a1.898 1.898 0 0 0 0-3.796z" fill="#2F2D56" data-color="1" fill="currentColor"></path>
        <path d="M149.625 57.453a1.89 1.89 0 0 0 1.342-.556l4.671-4.67a1.898 1.898 0 0 0-2.684-2.684l-4.671 4.67a1.898 1.898 0 0 0 1.342 3.24z" fill="#2F2D56" data-color="1" fill="currentColor"></path>
        <path d="M150.967 137.774a1.898 1.898 0 0 0-2.684 2.684l4.671 4.671a1.89 1.89 0 0 0 1.342.556 1.898 1.898 0 0 0 1.342-3.24l-4.671-4.671z" fill="#2F2D56" data-color="1" fill="currentColor"></path>
        <path d="M45.105 96.487c0-1.048-.85-1.898-1.898-1.898h-7.309a1.898 1.898 0 0 0 0 3.796h7.309c1.048 0 1.898-.85 1.898-1.898z" fill="#2F2D56" data-color="1" fill="currentColor"></path>
        <path d="M49.033 137.774l-4.672 4.671a1.898 1.898 0 0 0 2.684 2.684l4.672-4.671a1.898 1.898 0 0 0-2.684-2.684z" fill="#2F2D56" data-color="1" fill="currentColor"></path>
        <path d="M47.045 49.543a1.898 1.898 0 0 0-2.684 2.684l4.672 4.67a1.89 1.89 0 0 0 1.342.556 1.898 1.898 0 0 0 1.342-3.24l-4.672-4.67z" fill="#2F2D56" data-color="1" fill="currentColor"></path>
    </g>
</svg>